<svg viewBox="0 0 200 200" fill="none" xmlns="http://www.w3.org/2000/svg"><path d="M88.4567 85.0892C87.7634 84.2321 87.07 83.3751 86.3767 82.518C86.2419 82.3479 85.9852 82.3029 85.8022 82.4153C85.6161 82.5212 85.5294 82.7651 85.616 82.977C88.6109 90.3599 91.609 97.7428 94.6103 105.122C94.7387 105.434 95.1078 105.61 95.4224 105.508C95.7434 105.418 95.9552 105.068 95.8846 104.728C93.8848 94.8442 89.8081 85.3363 86.014 76.1366C85.8342 75.7033 85.311 75.4721 84.8777 75.6326C84.4411 75.7771 84.178 76.2842 84.3128 76.7465C88.5403 91.2298 92.9474 105.524 96.7288 120.074C97.0722 121.394 97.4158 122.716 97.7529 124.039C97.8845 124.546 98.3852 124.889 98.8795 124.832C99.377 124.793 99.8008 124.356 99.8265 123.846C100.221 116.511 98.8924 110.149 96.6165 104.169C94.3375 98.1793 91.1147 92.5491 87.6223 86.4983C87.5741 86.4116 87.4232 86.4919 87.4649 86.5786C90.5464 92.854 93.3712 98.6736 95.2811 104.635C97.1911 110.605 98.1893 116.701 97.7239 123.721C98.414 123.657 99.1073 123.593 99.7975 123.528C99.4733 122.193 99.1395 120.864 98.7928 119.535C94.9922 104.92 90.4598 90.6391 86.0461 76.2297C85.478 76.4319 84.9131 76.6341 84.3449 76.8396C88.2675 86.004 92.4404 95.3417 94.5718 105.004C94.9987 104.872 95.4223 104.74 95.846 104.606C92.7163 97.2805 89.5803 89.9554 86.4442 82.6303C86.1906 82.7812 85.937 82.9353 85.6834 83.0893C86.3928 83.9336 87.1022 84.7778 87.8116 85.622C88.1101 85.9751 88.7488 85.4487 88.4567 85.0892Z" fill="rgba(255, 255, 245, 0.86)"/><path d="M101.242 73.6008C103.55 90.6456 110.637 105.546 115.988 121.593C116.081 121.866 116.386 122.029 116.653 121.949C116.926 121.885 117.108 121.593 117.051 121.307C113.68 104.628 105.212 88.5174 99.3414 72.7309C98.9659 72.8754 98.5904 73.0198 98.2148 73.1642C106.021 92.8091 110.83 114.91 122.466 133.004C122.62 133.245 122.922 133.357 123.185 133.28C123.451 133.213 123.657 132.962 123.667 132.677C124.148 121.278 119.628 109.491 113.712 98.1954C107.793 86.9028 100.462 76.0885 95.2328 66.6962C95.0787 66.4169 94.7287 66.2789 94.4334 66.3784C94.1349 66.4651 93.9262 66.7764 93.9583 67.0974C94.4302 71.9124 95.4189 77.0675 96.8987 82.2709C101.72 99.3061 112.22 116.691 126.562 123.782C112.538 116.104 103.01 98.6705 98.2148 81.8985C96.7575 76.769 95.7816 71.6876 95.3161 66.9626C94.8924 67.0942 94.4656 67.229 94.0419 67.3606C99.3158 76.83 106.641 87.6186 112.521 98.8213C118.405 110.021 122.822 121.615 122.36 132.622C122.761 132.513 123.162 132.404 123.564 132.295C112.069 114.496 107.215 92.4785 99.335 72.7181C99.213 72.4131 98.8503 72.2558 98.5582 72.3778C98.2597 72.4837 98.096 72.8464 98.2115 73.1514C104.156 89.0246 112.615 105.068 115.972 121.529C116.325 121.432 116.678 121.339 117.035 121.243C111.613 105.126 104.538 90.3086 102.224 73.466C102.147 72.9235 101.168 73.0551 101.242 73.6008Z" fill="rgba(255, 255, 245, 0.86)"/><path d="M103.316 58.4787C100.783 54.7166 98.2471 50.9514 95.7113 47.1893C95.5476 46.9485 95.2074 46.8651 94.9602 47.0031C94.7034 47.1283 94.5783 47.4557 94.6842 47.735C99.1557 59.3133 102.404 74.2652 106.898 88.5976C111.533 103.379 117.818 117.429 127.718 126.177C127.75 126.205 127.801 126.148 127.769 126.119C118.341 116.903 112.952 102.853 108.346 88.145C103.881 73.8928 100.452 58.957 95.7723 47.3048C95.432 47.4878 95.0886 47.6676 94.7483 47.8506C97.3355 51.5773 99.9227 55.3008 102.513 59.0276C102.818 59.4706 103.617 58.9249 103.316 58.4787Z" fill="rgba(255, 255, 245, 0.86)"/><path d="M172.221 145.555C165.017 138.541 159.095 129.547 153.834 119.715C143.832 101.084 136.982 78.8844 132.305 60.4144C132.067 60.4786 131.833 60.5428 131.599 60.607C136.5 76.5733 147.491 91.9714 155.763 107.78C160.861 117.51 164.973 127.348 166.067 137.45C166.189 138.577 166.34 140.487 166.048 142.178C165.759 143.876 165.033 145.324 163.435 145.61C161.406 145.982 159.053 143.863 156.668 140.32C154.283 136.786 151.853 131.855 149.6 126.671C145.09 116.3 141.28 104.93 139.819 101.633C136.529 94.1991 133.849 87.3812 131.509 79.5714C130.337 75.6681 129.252 71.5144 128.215 66.9145C127.699 64.6162 127.195 62.2023 126.697 59.6536C126.45 58.3793 126.203 57.0696 125.959 55.7214C125.837 55.0506 125.715 54.3668 125.596 53.6735C125.535 53.3268 125.474 52.9802 125.413 52.6271C125.384 52.4538 125.352 52.2772 125.323 52.1007C125.307 52.0108 125.291 51.9241 125.278 51.8342C125.269 51.7893 125.262 51.7444 125.256 51.7026C125.368 51.6352 124.941 51.6641 125.59 51.5068C125.127 51.4265 124.665 51.3495 124.2 51.2725C122.652 54.0683 121.917 57.5736 121.795 61.5957C121.674 65.6209 122.171 70.1694 123.144 75.0646C125.089 84.8549 128.938 96.0448 133.605 107.138C142.939 129.319 155.545 151.112 162.655 160.436C162.684 160.475 162.751 160.424 162.725 160.385C155.789 150.954 143.607 128.947 134.597 106.728C130.096 95.6179 126.386 84.4537 124.53 74.795C123.603 69.964 123.14 65.5118 123.272 61.6438C123.397 57.7726 124.12 54.4952 125.506 51.9947C125.044 51.9177 124.582 51.8406 124.119 51.7604C124.784 51.693 124.373 51.8085 124.501 51.8342C124.508 51.8759 124.518 51.9209 124.524 51.9658C124.54 52.0557 124.556 52.1424 124.572 52.2322C124.604 52.4088 124.636 52.5853 124.668 52.7619C124.733 53.1118 124.797 53.4617 124.861 53.8083C124.989 54.4985 125.118 55.1822 125.246 55.8563C125.503 57.2045 125.76 58.5141 126.02 59.7885C126.54 62.3404 127.066 64.7543 127.602 67.0558C128.681 71.6589 129.801 75.8157 131.005 79.7255C133.409 87.5417 136.144 94.3628 139.482 101.787C140.943 105.033 144.824 116.406 149.375 126.767C151.654 131.948 154.104 136.882 156.511 140.429C158.922 143.969 161.284 146.152 163.467 145.773C165.168 145.465 165.913 143.921 166.202 142.204C166.494 140.487 166.337 138.567 166.212 137.434C165.098 127.303 160.97 117.462 155.869 107.726C147.584 91.9329 136.853 76.2972 132.298 60.3984C132.247 60.2122 132.038 60.0934 131.855 60.148C131.672 60.1897 131.547 60.3951 131.592 60.5877C135.942 79.1573 142.352 101.604 152.486 120.44C157.843 130.366 164.452 139.129 172.079 145.709C172.166 145.783 172.301 145.635 172.221 145.555Z" fill="rgba(255, 255, 245, 0.86)"/><path d="M107.678 51.7378C105.078 60.379 106.481 72.5768 110.403 84.9351C112.368 91.111 114.971 97.3191 118.05 103.126C119.59 106.028 121.247 108.827 123.002 111.472C124.761 114.114 126.607 116.611 128.559 118.874C135.187 126.546 142.946 131.515 150.361 131.765C142.984 130.921 136.032 125.528 129.679 117.921C127.808 115.677 125.975 113.247 124.251 110.644C122.524 108.044 120.89 105.283 119.375 102.423C116.339 96.6996 113.767 90.5686 111.829 84.4793C107.945 72.3104 106.632 60.2923 109.1 52.168C109.219 51.7763 108.997 51.3623 108.603 51.2435C108.211 51.1247 107.794 51.3462 107.678 51.7378Z" fill="rgba(255, 255, 245, 0.86)"/><path d="M173.265 121.419C165.416 121.766 158.55 119.586 152.535 115.66C146.519 111.728 141.342 106.037 136.877 99.2735C130.595 89.801 125.838 78.1296 122.567 66.2688C119.293 54.4081 117.495 42.3579 117.103 32.1278C116.712 32.1663 116.32 32.2016 115.929 32.2402C118.602 49.1438 121.581 66.2174 127.581 81.6798C133.577 97.1421 142.6 110.983 157.305 121.419C142.741 110.781 133.972 96.8949 128.191 81.4487C122.41 65.9992 119.626 48.9736 117.097 32.0604C117.052 31.7554 116.757 31.5276 116.461 31.5597C116.16 31.5789 115.913 31.8582 115.922 32.1695C116.234 42.5056 117.983 54.6552 121.254 66.6284C124.528 78.6047 129.314 90.4076 135.724 100.041C140.305 106.897 145.775 112.604 152.063 116.411C158.351 120.218 165.445 122.112 173.265 121.419Z" fill="rgba(255, 255, 245, 0.86)"/><path d="M138.086 60.3565C133.139 51.8951 128.19 43.4337 123.243 34.9722C123.173 34.8567 123.018 34.8085 122.903 34.8663C122.784 34.9208 122.72 35.0685 122.768 35.1937C134.577 67.749 147.613 100.378 167.945 128.513C147.758 100.275 134.905 67.6174 123.262 35.0171C123.105 35.091 122.945 35.1648 122.787 35.2386C127.692 43.7225 132.597 52.2096 137.502 60.6967C137.595 60.8572 137.804 60.9118 137.964 60.8187C138.125 60.7256 138.179 60.517 138.086 60.3565Z" fill="rgba(255, 255, 245, 0.86)"/><path d="M120.139 37.1196C126.755 51.0315 139.72 72.7821 147.786 94.353C155.853 115.924 159.021 137.251 146.04 150.357C146.008 150.389 146.066 150.447 146.101 150.415C159.255 137.373 156.251 115.844 148.342 94.1475C140.432 72.4483 127.618 50.5211 121.163 36.6381C121.031 36.3556 120.691 36.2336 120.409 36.3684C120.126 36.5001 120.004 36.8371 120.139 37.1196Z" fill="rgba(255, 255, 245, 0.86)"/><path d="M78.5065 70.5929C78.7248 65.8647 78.9432 61.1364 79.1582 56.4081C78.9143 56.5365 78.6672 56.6682 78.42 56.7998C81.1581 58.5203 84.3295 61.8747 87.5843 66.3301C90.8392 70.7887 94.1905 76.3483 97.3394 82.489C100.492 88.6296 103.445 95.3545 105.916 102.137C107.152 105.53 108.269 108.939 109.229 112.297C110.192 115.657 110.982 118.967 111.617 122.158C114.201 135.193 113.88 146.29 107.643 151.567C114.204 146.656 115.331 135.158 112.898 121.914C112.304 118.668 111.479 115.324 110.51 111.931C109.537 108.538 108.404 105.103 107.149 101.688C104.636 94.8537 101.628 88.1032 98.4146 81.9337C95.2015 75.7674 91.7862 70.1853 88.4511 65.6913C85.1127 61.2006 81.8674 57.7981 78.9335 55.978C78.7826 55.8849 78.5965 55.8817 78.4488 55.962C78.3012 56.039 78.1984 56.1963 78.1919 56.3664C78.0154 61.0979 77.8389 65.8294 77.6623 70.5576C77.6463 71.0263 78.4873 71.0584 78.5065 70.5929Z" fill="rgba(255, 255, 245, 0.86)"/><path d="M80.1251 62.2949C81.6338 61.6016 83.1425 60.9114 84.6512 60.2181C84.3847 60.1282 84.1216 60.0383 83.8584 59.9516C88.1501 67.8 98.4892 87.9681 103.545 105.61C106.074 114.428 107.275 122.616 105.766 128.301C104.251 133.973 100.097 137.202 91.6906 136.153C91.665 136.149 91.6424 136.165 91.6392 136.191C91.636 136.217 91.6521 136.239 91.6778 136.243C100.075 137.424 104.473 134.175 106.074 128.385C107.679 122.603 106.556 114.344 104.126 105.446C99.266 87.6503 89.1548 67.3185 84.9369 59.3675C84.7924 59.0946 84.4361 58.9726 84.144 59.101C82.6289 59.7751 81.1106 60.4492 79.5955 61.1201C79.2681 61.2645 79.1269 61.6497 79.2714 61.9739C79.419 62.2981 79.8009 62.4426 80.1251 62.2949Z" fill="rgba(255, 255, 245, 0.86)"/><path d="M87.7651 52.7966C90.2143 51.8048 92.4227 51.8176 94.5284 52.6073C96.631 53.4001 98.6308 55.0083 100.499 57.2553C104.245 61.7524 107.442 68.7694 110.1 76.5214C115.428 92.0351 118.654 110.486 120.452 117.917C120.507 118.135 120.901 118.042 120.85 117.824C119.126 110.399 116.083 91.9067 110.88 76.2582C108.273 68.4323 105.137 61.3127 101.298 56.6005C99.3754 54.2444 97.2666 52.4821 94.9265 51.5705C92.5897 50.6556 90.0185 50.63 87.3253 51.7021C87.0236 51.8208 86.8759 52.1675 86.9979 52.4692C87.1199 52.771 87.4634 52.9186 87.7651 52.7966Z" fill="rgba(255, 255, 245, 0.86)"/><path d="M61.1821 140.265C59.0283 124.305 60.508 107.979 61.1853 91.8589C60.1196 107.957 58.2321 124.222 60.0072 140.406C60.0426 140.73 60.3412 140.961 60.6654 140.923C60.9896 140.881 61.2239 140.586 61.1821 140.265Z" fill="rgba(255, 255, 245, 0.86)"/><path d="M38.5263 53.5224C38.995 56.5655 39.6178 63.7494 40.4909 72.7533C41.3672 81.7604 42.5003 92.6068 44.0025 103.049C45.508 113.494 47.3795 123.528 49.7516 130.94C50.9393 134.651 52.2488 137.703 53.735 139.854C54.4798 140.929 55.2726 141.783 56.1425 142.367C57.0092 142.948 57.9723 143.257 58.9738 143.192C60.017 143.131 60.9736 142.717 61.7953 142.037C62.6203 141.359 63.3264 140.422 63.9459 139.273C65.185 136.975 66.0902 133.816 66.7643 130.038C68.1125 122.482 68.5233 112.435 68.4751 102.057C68.4238 91.6759 67.9102 80.9707 67.3966 72.1273C66.883 63.2903 66.3694 56.2991 66.3148 53.4197C65.9136 53.4422 65.5155 53.4647 65.1175 53.4839C65.3839 56.482 65.6504 64.1987 66.2474 73.8992C66.8413 83.6029 67.769 95.3096 69.3611 106.349C70.9533 117.394 73.2034 127.765 76.4968 134.863C78.15 138.413 80.0599 141.16 82.3679 142.756C84.6694 144.361 87.4331 144.704 90.3735 143.436C94.9797 141.475 98.6423 138.178 101.416 134.041C104.192 129.9 106.089 124.918 107.203 119.535C109.428 108.769 108.529 96.3913 105.104 85.8659C101.875 75.9568 96.466 67.627 89.0542 63.881C85.3499 62.0128 81.1352 61.3323 76.5642 62.2407C71.9933 63.1491 67.0821 65.6207 61.8884 69.9734C49.2573 80.5566 40.6 93.3965 33.3616 107.071C27.0251 119.038 21.7158 131.617 15.5976 143.947C16.3263 144.223 17.0517 144.499 17.7772 144.775C20.8908 132.879 24.8135 117.372 30.7679 103.103C36.716 88.8351 44.7119 75.8445 55.8408 68.9591C59.8308 66.4875 64.7003 65.3447 70.1508 65.3286C75.5981 65.3094 81.6135 66.42 87.8505 68.4263C104.552 73.7805 122.771 85.5931 136.144 98.7956C142.834 105.395 148.316 112.338 151.818 118.944C155.333 125.557 156.823 131.8 155.754 136.981C155.134 139.954 153.719 142.082 151.555 143.687C149.392 145.285 146.419 146.332 142.76 146.836C135.441 147.86 125.471 146.694 114.307 144.152C104.757 141.982 94.3184 138.827 83.8283 135.248C73.3382 131.665 62.7969 127.643 53.0611 123.682C33.5863 115.77 17.3471 108.04 11.0749 104.805C11.0395 105.254 11.0074 105.7 10.9753 106.15C16.2043 104.313 21.5008 103.797 26.8486 104.288C43.0685 105.774 59.7376 116.588 75.9382 127.846C84.0434 133.473 92.0426 139.202 99.8716 143.915C107.701 148.624 115.36 152.328 122.839 153.856C123.32 153.952 123.828 153.708 124.049 153.284C124.283 152.87 124.206 152.309 123.853 151.952C106.051 134.002 89.3238 116.425 78.7181 95.3641C72.9851 83.9849 68.9952 71.5912 67.5443 57.4514C66.9665 57.8719 66.392 58.2924 65.8142 58.7129C72.7702 61.6468 78.6475 67.2161 83.9021 74.3711C89.1536 81.5196 93.7697 90.225 98.2347 99.2803C102.703 108.339 107.023 117.747 111.736 126.324C116.451 134.904 121.552 142.656 127.641 148.409C128.331 149.057 129.034 149.683 129.75 150.28C129.923 150.424 130.161 150.463 130.363 150.389C130.565 150.318 130.729 150.139 130.771 149.917C133.653 135.437 133.21 109.058 128.045 84.6236C125.455 72.4098 121.68 60.6903 116.483 51.192C111.283 41.7034 104.645 34.3815 96.2349 31.1651C95.9492 31.056 95.6314 31.0817 95.3746 31.2197C95.1146 31.3545 94.9124 31.6017 94.8385 31.9099C92.9704 39.71 90.3927 53.3234 88.929 68.4487C87.4652 83.5772 87.1089 100.205 89.725 114.062C91.0058 120.793 92.9992 126.873 95.9428 131.803C98.8863 136.728 102.815 140.509 107.887 142.493C108.195 142.611 108.523 142.582 108.783 142.438C109.049 142.294 109.248 142.034 109.306 141.729C114.108 117.224 117.973 90.6006 116.342 64.9146C115.411 50.3157 112.689 35.9833 107.142 22.4245C107.043 22.1773 106.792 22.0072 106.532 22.0008C106.269 21.9879 106.009 22.1388 105.884 22.3859C101.348 31.4733 98.8605 43.44 98.1062 56.5494C97.355 69.6589 98.3501 83.911 100.835 97.5341C104.558 117.908 111.639 136.814 120.711 148.46C120.964 148.787 121.465 148.832 121.76 148.563C127.955 143.006 132.161 135.379 134.732 126.87C137.303 118.354 138.247 108.942 137.865 99.7425C137.409 88.8383 135.2 78.2037 131.361 69.6942C131.252 69.4502 130.992 69.2897 130.726 69.3026C130.459 69.3058 130.206 69.4791 130.103 69.7488C129.047 72.4612 127.766 77.1605 126.572 82.9384C125.378 88.7163 124.28 95.56 123.654 102.5C122.926 110.528 122.768 118.672 123.612 125.429C124.036 128.809 124.71 131.842 125.709 134.359C126.707 136.869 128.036 138.885 129.83 140.14C130.389 140.541 131.076 140.714 131.718 140.608C132.363 140.506 132.937 140.178 133.47 139.729C134.53 138.82 135.496 137.373 136.475 135.517C138.414 131.807 140.323 126.443 142.063 120.752C145.527 109.376 148.348 96.7476 148.849 93.8298C148.856 93.7816 148.865 93.7367 148.872 93.695C148.608 93.6629 148.345 93.6276 148.085 93.5955C145.414 121.557 141.871 148.739 141.566 176.99C141.559 177.542 142.012 177.991 142.567 177.991C143.123 177.991 143.575 177.542 143.569 176.99C143.264 148.893 146.211 121.638 148.875 93.6693C148.894 93.4574 148.734 93.2584 148.528 93.2391C148.326 93.207 148.12 93.3611 148.088 93.5698C148.082 93.6115 148.076 93.6532 148.066 93.6982C147.597 96.5486 144.702 109.183 141.014 120.421C139.178 126.042 137.149 131.325 135.207 134.834C134.241 136.586 133.281 137.893 132.478 138.538C132.077 138.862 131.737 139.01 131.487 139.039C131.239 139.061 131.053 139.023 130.771 138.824C129.371 137.8 128.225 136.06 127.352 133.723C126.482 131.389 125.888 128.481 125.538 125.204C124.832 118.649 125.083 110.627 125.802 102.696C126.421 95.836 127.349 89.0341 128.36 83.2819C129.368 77.5329 130.472 72.8271 131.384 70.2238C130.967 70.2399 130.546 70.2591 130.125 70.2784C134.157 78.4317 136.751 88.9378 137.207 99.7714C137.595 108.904 136.542 118.248 133.859 126.597C131.178 134.946 126.874 142.287 120.807 147.478C121.16 147.513 121.51 147.548 121.86 147.584C113.27 136.047 106.754 117.24 103.111 97.12C100.668 83.6607 99.5218 69.5914 100.064 56.6457C100.607 43.7064 102.851 31.8938 107.126 22.9958C106.706 22.983 106.288 22.9702 105.868 22.9573C111.556 36.2529 114.451 50.457 115.376 64.9756C117.006 90.546 112.464 116.98 107.251 141.308C107.723 141.051 108.195 140.798 108.67 140.544C104.141 138.673 100.655 135.251 97.9554 130.616C95.2622 125.984 93.3876 120.145 92.1646 113.603C89.632 100.131 89.9112 83.6735 91.2819 68.6702C92.6493 53.6669 95.1081 40.1017 96.8896 32.3914C96.4242 32.6385 95.9588 32.8857 95.4934 33.1328C103.249 36.0122 109.697 42.8622 114.853 52.094C120.008 61.313 123.856 72.8656 126.514 84.9543C131.84 109.128 132.376 135.472 129.535 149.67C129.875 149.551 130.215 149.429 130.556 149.311C129.862 148.73 129.178 148.123 128.508 147.49C116.618 136.288 108.49 116.813 99.7978 98.5227C95.4419 89.3776 90.932 80.5181 85.6516 73.1063C80.3713 65.6978 74.3012 59.7048 66.7963 56.4275C66.3951 56.2509 65.9201 56.3087 65.5766 56.5623C65.2299 56.8062 65.0245 57.2396 65.0663 57.689C66.3823 72.1658 70.3947 84.9607 76.2657 96.6C87.1474 118.168 104.26 135.774 122.264 153.548C122.601 152.912 122.938 152.28 123.275 151.647C116.188 150.286 108.661 146.788 100.88 142.22C93.0955 137.652 85.0546 132.028 76.8852 126.469C60.5338 115.359 43.7008 104.484 26.977 102.917C21.4623 102.404 15.954 102.904 10.4938 104.763C10.2178 104.856 10.0188 105.116 10.0028 105.398C9.9771 105.681 10.1311 105.97 10.3943 106.108C16.6922 109.417 32.8254 117.4 52.2039 125.733C61.8947 129.894 72.4042 134.124 82.9232 137.851C93.439 141.581 103.968 144.788 113.678 146.948C125.038 149.474 135.258 150.607 143.135 149.426C147.071 148.829 150.445 147.645 153.045 145.674C155.648 143.709 157.413 140.926 158.058 137.431C159.179 131.431 157.352 124.77 153.613 117.975C149.864 111.176 144.156 104.214 137.28 97.6272C123.523 84.4599 105.117 72.7853 88.2067 67.3156C81.8863 65.2773 75.765 64.1121 70.1476 64.096C64.5334 64.08 59.4135 65.2163 55.1378 67.8131C43.5499 74.859 35.2875 88.0326 29.0763 102.387C22.8714 116.742 18.7338 132.311 15.5142 144.171C15.3602 144.743 15.6844 145.372 16.2236 145.568C16.7565 145.786 17.421 145.536 17.6938 145C23.9693 132.638 29.3524 120.1 35.6214 108.265C42.786 94.7382 51.042 82.1006 63.2141 71.5271C68.1414 67.2482 72.7315 64.8696 76.9205 63.9644C81.1095 63.0624 84.9133 63.6113 88.3608 65.2805C95.2526 68.6028 100.69 76.5635 103.862 86.2736C107.232 96.5711 108.124 108.766 105.955 119.278C104.873 124.536 103.027 129.367 100.369 133.338C97.7082 137.312 94.2415 140.425 89.8824 142.284C87.247 143.391 85.0996 143.103 83.0741 141.732C81.0551 140.352 79.2157 137.784 77.6203 134.343C74.4136 127.46 72.1569 117.16 70.568 106.175C68.9791 95.1876 68.0482 83.513 67.4512 73.8254C66.8509 64.1345 66.5845 56.4499 66.3117 53.378C66.2828 53.0602 65.9907 52.8098 65.6825 52.8323C65.3712 52.8419 65.108 53.1244 65.1144 53.4422C65.1722 56.3986 65.6889 63.361 66.2057 72.1979C66.7193 81.0285 67.2329 91.7177 67.2842 102.06C67.3388 112.403 66.9247 122.405 65.599 129.829C64.9378 133.54 64.0455 136.602 62.906 138.711C62.3378 139.767 61.7086 140.576 61.0441 141.125C60.3764 141.671 59.68 141.96 58.9 142.011C58.1841 142.053 57.5068 141.851 56.8006 141.382C56.1009 140.917 55.3947 140.175 54.7077 139.18C53.3307 137.196 52.0434 134.227 50.8782 130.581C48.5414 123.284 46.67 113.292 45.1741 102.882C43.6719 92.4688 42.5421 81.6384 41.6658 72.6377C40.7927 63.6338 40.1763 56.4756 39.6948 53.3427C39.6467 53.0185 39.3449 52.8002 39.0207 52.8484C38.6997 52.8965 38.4782 53.1982 38.5263 53.5224Z" fill="rgba(255, 255, 245, 0.86)"/><path d="M109.284 57.8627C101.728 70.9721 98.8197 84.7717 94.1749 98.8698C94.3418 98.9211 94.5056 98.9725 94.6725 99.0206C95.8602 94.5235 99.5034 84.8487 104.601 74.5544C109.692 64.2569 116.247 53.3334 123.203 46.2972C129.147 40.2754 135.368 37.1232 141.143 39.5563C144.115 40.805 145.159 44.214 144.985 48.8235C144.812 53.4297 143.419 59.2012 141.573 65.0851C139.727 70.9689 137.426 76.9715 135.445 82.0496C133.465 87.131 131.808 91.275 131.224 93.522C131.179 93.705 131.256 93.9072 131.41 94.0067C131.561 94.1126 131.776 94.1126 131.934 94.0003C145.165 84.4507 156.512 72.5033 171.018 65.3355C170.739 64.9278 170.459 64.5201 170.177 64.1125C168.851 65.3194 165.712 67.6723 161.664 70.3398C157.613 73.0104 152.635 76.015 147.569 78.5765C140.886 81.9694 134.049 84.6273 129.041 84.7589C126.531 84.8295 124.531 84.287 123.148 82.9998C121.765 81.7126 120.898 79.5844 120.895 76.2557C120.888 71.6334 121.598 68.3464 122.84 66.1668C124.085 63.9905 125.838 62.8927 128.05 62.6134C132.473 62.0517 138.703 64.9695 145.329 69.6785C153.954 75.8063 163.285 84.9097 170.758 92.9539C174.494 96.9727 177.772 100.728 180.272 103.714C182.773 106.692 184.503 108.914 185.122 109.832C185.251 109.613 185.379 109.398 185.508 109.18C178.536 108.381 170.983 103.412 163.503 96.2119C156.024 89.0152 148.612 79.6133 141.849 70.0316C131.555 55.4392 122.865 40.3556 118.115 31.7979C117.813 32.1414 117.511 32.4848 117.206 32.8251C128.088 37.1007 138.248 47.2057 147.213 58.7198C156.185 70.2274 163.969 83.1218 170.273 92.9282C170.482 93.2492 170.684 93.5669 170.89 93.8815C171.018 94.0837 171.297 94.1512 171.496 94.0356C171.702 93.9265 171.792 93.6536 171.692 93.4385C160.38 69.2869 143.515 49.8828 123.402 32.6196C123.135 32.3917 122.753 32.3372 122.439 32.4688C122.124 32.5972 121.893 32.9085 121.867 33.2648C121.678 35.8328 122.32 39.1808 123.552 42.9846C124.788 46.782 126.628 51.0159 128.887 55.2466C132.527 62.0677 137.355 68.8118 142.462 73.5979C145.017 75.9925 147.643 77.8992 150.246 79.0804C152.85 80.2585 155.45 80.7047 157.902 80.1269C160.589 79.5009 162.422 77.9891 163.503 75.9475C164.592 73.906 164.964 71.3541 164.864 68.5518C164.665 63.3646 162.916 57.2624 160.685 51.9243C159.568 49.2568 158.323 46.7884 157.071 44.7372C155.816 42.6828 154.57 41.0522 153.367 40.0154C153.1 39.7907 152.843 39.6109 152.519 39.4954C152.355 39.4408 152.166 39.4023 151.957 39.4087C151.749 39.4183 151.521 39.4825 151.331 39.5949C150.943 39.8356 150.773 40.1823 150.68 40.4648C150.583 40.7569 150.551 41.0394 150.539 41.3411C150.516 41.9414 150.583 42.6283 150.709 43.4147C150.831 44.1979 151.013 45.071 151.232 45.9891C152.108 49.6581 153.617 54.0268 154.371 55.8083C154.493 56.094 154.589 56.3123 154.692 56.5017C156.753 60.3023 159.026 62.8156 161.337 64.2697C163.645 65.7271 166.023 66.077 168.142 65.5313C170.267 64.9888 172.113 63.6181 173.624 61.7628C175.136 59.901 176.321 57.5449 177.114 54.9192C178.42 50.6403 178.6 45.6039 177.046 40.8692C176.989 40.6927 176.828 40.5675 176.651 40.5482C176.478 40.5258 176.292 40.6092 176.196 40.7665C167.686 54.4345 161.321 68.9948 154.336 83.3946C154.606 83.4909 154.872 83.5872 155.138 83.6803C159.003 67.3706 165.657 45.9762 180.359 36.6289C180.153 36.5326 179.948 36.4363 179.743 36.3368C180.253 40.4006 178.982 46.8911 177.29 53.8984C175.602 60.9154 173.506 68.4652 172.411 74.7759C171.865 77.9345 171.57 80.7785 171.705 83.1154C171.846 85.4426 172.408 87.2979 173.708 88.3989C174.356 88.9446 175.181 89.272 176.154 89.3555C177.126 89.4389 178.256 89.2881 179.563 88.8901C182.179 88.0908 185.527 86.3093 189.828 83.3208C190.011 83.1924 190.056 82.9452 189.928 82.7623C189.803 82.5825 189.555 82.5376 189.372 82.6628C185.113 85.6287 181.81 87.3718 179.329 88.1261C176.838 88.8804 175.242 88.6429 174.221 87.7858C173.191 86.932 172.632 85.3045 172.504 83.0672C172.372 80.8363 172.658 78.0372 173.201 74.9139C174.282 68.6642 176.375 61.1176 178.07 54.0878C179.762 47.0484 181.068 40.545 180.545 36.2373C180.51 35.9548 180.166 35.7911 179.926 35.9484C164.858 45.5686 158.226 67.133 154.307 83.4845C154.256 83.6932 154.381 83.9178 154.577 83.9853C154.772 84.0591 155.01 83.9628 155.106 83.7702C162.117 69.3575 168.501 54.8357 176.998 41.2673C176.712 41.2352 176.43 41.1998 176.147 41.1645C177.621 45.6873 177.441 50.5376 176.167 54.6271C175.377 57.1308 174.148 59.3264 172.677 60.9539C171.207 62.5877 169.509 63.6374 167.792 63.952C166.068 64.2633 164.309 63.9038 162.451 62.5942C160.595 61.2781 158.679 58.9669 156.788 55.3814C156.756 55.3236 156.669 55.1374 156.567 54.8871C155.893 53.2596 154.326 48.9198 153.347 45.4402C153.103 44.5703 152.898 43.7517 152.756 43.0488C152.612 42.3458 152.535 41.7552 152.532 41.3828C152.529 41.1999 152.548 41.0747 152.554 41.049C152.554 41.0426 152.554 41.0426 152.548 41.0522C152.545 41.0586 152.535 41.0747 152.522 41.0939C152.493 41.1356 152.432 41.2031 152.342 41.2576C152.253 41.3122 152.134 41.3411 152.054 41.3411C151.97 41.3443 151.922 41.3282 151.912 41.3218C151.912 41.3218 151.919 41.3218 151.922 41.325C151.935 41.3282 151.951 41.3347 151.973 41.3475C152.021 41.3732 152.089 41.4149 152.172 41.4791C153.164 42.2366 154.445 43.6972 155.751 45.5943C157.061 47.4914 158.419 49.8314 159.648 52.3897C162.11 57.5032 164.046 63.5154 164.19 68.5743C164.28 71.3027 163.866 73.7359 162.833 75.5784C161.793 77.4241 160.168 78.6985 157.697 79.2024C155.491 79.6518 153.161 79.1832 150.763 77.9923C148.368 76.8046 145.923 74.8883 143.541 72.4872C138.771 67.6884 134.248 60.9571 130.666 54.2932C128.451 50.1588 126.634 46.0244 125.414 42.3715C124.191 38.7218 123.585 35.5311 123.729 33.3997C123.219 33.6147 122.705 33.8298 122.195 34.0449C142.353 50.9485 159.571 69.8133 170.857 93.827C171.127 93.6793 171.393 93.5316 171.66 93.384C171.458 93.0694 171.252 92.7516 171.047 92.4338C164.749 82.6435 157.016 69.6914 148.086 58.0425C139.15 46.3968 129.022 36.035 117.746 31.4737C117.463 31.3582 117.129 31.4416 116.934 31.6663C116.735 31.8846 116.69 32.228 116.84 32.5009C121.533 41.1196 130.126 56.3187 140.478 71.001C147.274 80.6405 154.869 90.0264 162.579 97.191C170.286 104.349 178.106 109.305 185.421 110.008C185.588 110.024 185.745 109.941 185.822 109.803C185.902 109.668 185.896 109.488 185.806 109.36C185.126 108.397 183.354 106.221 180.783 103.277C178.218 100.334 174.863 96.6357 171.056 92.6714C163.436 84.7428 154.018 75.7389 145.409 69.5629C138.793 64.8154 132.675 61.705 127.998 62.1544C125.658 62.3791 123.671 63.5443 122.285 65.8394C120.895 68.1345 120.076 71.5274 119.941 76.2429C119.842 79.716 120.683 82.2198 122.336 83.8472C123.989 85.4714 126.351 86.1199 129.061 86.1038C134.492 86.0653 141.506 83.4492 148.301 80.0178C153.44 77.4177 158.454 74.3714 162.534 71.6494C166.617 68.9242 169.75 66.5424 171.191 65.2199C171.464 64.9663 171.512 64.5265 171.3 64.2376C171.101 63.9391 170.678 63.8268 170.347 63.9937C155.585 71.46 144.401 83.6129 131.397 93.2652C131.635 93.4257 131.869 93.583 132.107 93.7435C132.624 91.6057 134.222 87.4167 136.132 82.3097C138.039 77.1994 140.26 71.1551 142.039 65.2295C143.817 59.3007 145.152 53.4907 145.281 48.8331C145.409 44.1851 144.33 40.6542 141.22 39.3734C135.301 36.9403 129.073 40.1887 123.125 46.2202C116.169 53.2821 109.576 64.1831 104.389 74.4485C99.2018 84.7171 95.4332 94.3406 94.1685 98.8858C94.1332 99.0175 94.2135 99.1651 94.3451 99.2036C94.4735 99.2454 94.6243 99.1715 94.6693 99.0367C99.5034 84.9643 102.649 71.2418 110.302 58.4597C110.469 58.1805 110.372 57.8177 110.09 57.654C109.811 57.4871 109.445 57.5802 109.284 57.8627Z" fill="rgba(255, 255, 245, 0.86)"/><path d="M70.1301 80.3834C69.8926 79.6933 69.1833 77.7609 68.3006 75.225C67.421 72.6924 66.3714 69.5691 65.479 66.5421C64.5866 63.5184 63.8514 60.578 63.5914 58.4723C63.4566 57.4227 63.4568 56.5752 63.5659 56.1098C63.614 55.8787 63.6911 55.7599 63.7135 55.7439C63.7392 55.731 63.6749 55.7439 63.7519 55.7374C64.4389 55.7663 65.0488 55.9653 65.6362 56.3377C66.2204 56.7133 66.7757 57.2718 67.2957 58.0133C68.3358 59.4899 69.2058 61.679 69.8798 64.3561C71.2344 69.7103 71.8346 76.9873 71.9951 84.505C72.3194 99.5404 70.9006 115.568 70.4897 119.57C70.448 119.956 70.7466 120.318 71.1157 120.344C71.4848 120.395 71.8507 120.1 71.8892 119.718C74.5021 94.7865 76.2355 66.3142 85.4095 43.0357C84.9826 42.9811 84.5525 42.9265 84.1191 42.872C87.6533 71.6684 78.4407 100.442 80.0007 129.73C80.0168 130.022 80.2383 130.272 80.5144 130.327C80.7872 130.391 81.0889 130.25 81.2238 129.99C87.7239 117.365 91.0527 95.3225 88.2023 76.5989C86.5556 65.8135 82.97 56.0905 76.5019 49.8568C76.274 49.6385 75.9242 49.5679 75.632 49.6738C75.3399 49.7766 75.112 50.0526 75.0734 50.3832C74.8584 52.168 74.7333 54.9382 74.7012 58.4627C74.6691 61.9872 74.7333 66.2597 74.9098 71.0008C75.2629 80.4862 76.0782 91.859 77.5516 102.872C79.179 115.083 81.5319 126.844 84.6809 135.171C86.2602 139.334 88.0256 142.65 90.1121 144.778C91.1585 145.838 92.3046 146.608 93.5661 146.964C94.8244 147.324 96.1758 147.234 97.4918 146.685C98.9556 146.085 100.162 144.919 101.186 143.375C102.207 141.825 103.061 139.87 103.79 137.575C105.244 132.988 106.204 127.027 106.82 120.261C108.046 106.731 107.889 89.9779 107.356 74.8591C106.762 57.6088 105.741 42.4932 105.064 36.7763C105.016 36.3879 104.647 36.0765 104.255 36.1054C103.867 36.1182 103.53 36.4617 103.52 36.879C103.247 53.3942 102.682 70.6091 103.562 87.7856C104.599 108.108 107.366 128.353 113.949 147.176C114.103 147.613 114.53 147.902 114.967 147.882C115.403 147.876 115.811 147.564 115.936 147.138C122.61 124.106 121.342 99.6335 120.099 75.7932C119.714 68.4456 119.368 61.1558 119.246 54.0008C118.748 54.0779 118.251 54.1517 117.75 54.2288C120.42 64.2053 121.242 74.7885 121.82 85.5097C122.401 96.2277 122.738 107.093 124.471 117.609C125.627 124.604 127.45 131.428 130.326 137.87C130.538 138.345 130.994 138.638 131.466 138.641C131.935 138.657 132.403 138.381 132.609 137.964C139.003 125.05 141.76 109.533 143.063 94.045C144.103 81.6546 143.904 69.2224 143.134 58.132C143.121 57.9138 142.922 57.734 142.707 57.7469C142.495 57.7501 142.309 57.9427 142.309 58.161C142.322 72.808 143.384 90.9987 142.515 108.756C141.648 126.51 138.836 143.825 131.161 156.694C131.052 156.873 131.113 157.111 131.293 157.217C131.475 157.326 131.71 157.268 131.819 157.085C139.603 144.024 142.405 126.603 143.288 108.791C144.168 90.9827 143.121 72.7727 143.137 58.161C142.861 58.1706 142.585 58.1802 142.309 58.1898C143.054 69.2449 143.224 81.6417 142.149 93.9679C140.807 109.395 137.029 124.62 130.371 136.798C131.132 136.827 131.893 136.859 132.654 136.888C130.134 130.574 128.571 123.952 127.447 117.118C125.759 106.856 125.168 96.0833 124.272 85.3396C123.377 74.5959 122.173 63.9003 119.217 53.8179C119.108 53.4423 118.722 53.2048 118.36 53.2722C117.997 53.3235 117.708 53.6734 117.724 54.0458C118.019 61.22 118.488 68.5098 118.873 75.8574C120.132 99.6817 120.883 124.087 113.936 146.54C114.601 146.528 115.262 146.515 115.923 146.502C109.754 127.839 107.34 107.829 106.309 87.6476C105.436 70.5995 105.343 53.4134 105.07 36.879C104.557 36.9143 104.043 36.9464 103.53 36.9817C104.361 42.5798 105.989 57.6602 106.659 74.8848C107.231 89.9812 107.118 106.731 105.629 120.139C104.884 126.841 103.796 132.712 102.297 137.084C101.552 139.27 100.702 141.077 99.7708 142.419C98.8399 143.764 97.8416 144.618 96.8208 145.009C95.8097 145.395 94.9431 145.414 94.0893 145.16C93.2386 144.9 92.3783 144.329 91.518 143.417C89.7943 141.607 88.1541 138.464 86.7128 134.42C83.8174 126.327 81.6539 114.653 80.0714 102.539C78.6558 91.6118 77.6446 80.316 77.0861 70.8948C76.8068 66.1858 76.64 61.9455 76.5886 58.4563C76.5372 54.9735 76.6014 52.2322 76.7651 50.5694C76.29 50.746 75.8118 50.9193 75.3368 51.0959C81.5223 56.7614 85.3067 66.173 86.931 76.7947C89.7557 95.2134 86.4174 117.144 80.0746 129.396C80.479 129.486 80.8868 129.573 81.2944 129.659C79.728 100.69 88.979 71.8995 85.4545 42.7115C85.416 42.4065 85.1656 42.1593 84.8735 42.124C84.5814 42.0823 84.2765 42.2589 84.1641 42.5446C74.8681 66.1056 73.1283 94.6805 70.4897 119.57C70.9551 119.619 71.4238 119.667 71.8925 119.718C72.3098 115.67 73.7478 99.6207 73.4396 84.4729C73.2823 76.8974 72.6949 69.5531 71.2986 63.9966C70.5988 61.22 69.7033 58.8832 68.5028 57.1658C67.8993 56.3088 67.2187 55.6026 66.4323 55.0987C65.6491 54.5915 64.76 54.2962 63.8066 54.2609C63.3861 54.232 62.9238 54.4117 62.6413 54.7199C62.3556 55.028 62.2113 55.394 62.1214 55.7824C61.9481 56.5656 61.9833 57.5157 62.1181 58.6553C62.4006 60.9183 63.1486 63.8971 64.0474 66.9626C64.9494 70.0281 65.9989 73.1707 66.8816 75.7194C67.7644 78.2616 68.4803 80.2197 68.7018 80.8714C68.8366 81.263 69.2668 81.4748 69.6584 81.34C70.0532 81.2052 70.265 80.7783 70.1301 80.3834Z" fill="rgba(255, 255, 245, 0.86)"/><path d="M67.3803 78.6211C66.2408 78.4478 63.6599 78.2006 60.3954 77.8154C57.1373 77.4335 53.2212 76.9198 49.5073 76.2297C45.7966 75.5396 42.2785 74.6665 39.8903 73.6168C38.6962 73.0968 37.7974 72.5254 37.3192 72.0118C37.0784 71.755 36.9467 71.5271 36.8825 71.3345C36.8215 71.1387 36.8151 70.975 36.8696 70.7471C37.059 70.0153 37.4636 69.3957 38.1216 68.8179C38.7797 68.2466 39.6912 67.7394 40.7954 67.3253C43.0006 66.4907 45.9538 66.0285 49.0322 65.8359C55.1953 65.4475 61.8881 66.112 64.5299 66.5292C96.9793 71.6106 126.748 88.3505 158.511 97.3865C158.658 96.5005 158.806 95.6114 158.954 94.7254C145.684 93.9775 129.692 89.6698 113.299 86.2063C96.8989 82.7523 80.0692 80.1234 64.9279 82.9289C57.6316 84.2867 50.7271 86.9413 44.5575 91.3967C44.1017 91.7241 43.8867 92.3019 44.0022 92.822C44.1049 93.3452 44.535 93.7849 45.0743 93.9005C61.0823 97.3127 81.0322 99.6302 101.033 103.004C121.028 106.371 141.084 110.827 157.15 118.418C162.375 120.887 167.174 123.692 171.402 126.876C171.424 126.433 171.447 125.987 171.469 125.541C169.736 126.571 167.165 127.448 163.99 128.112C160.815 128.78 157.037 129.245 152.868 129.512C144.528 130.048 134.622 129.781 124.777 128.812C114.933 127.842 105.139 126.177 97.0274 123.914C92.9732 122.784 89.3395 121.503 86.3414 120.097C83.3465 118.694 80.9969 117.157 79.5043 115.597C78.4771 114.531 77.8607 113.478 77.6007 112.451C77.3471 111.42 77.4049 110.377 77.9024 109.138C78.3839 107.96 79.0677 107.036 79.9729 106.268C80.8781 105.504 82.0145 104.901 83.3948 104.464C86.1553 103.588 89.8724 103.412 94.2122 103.855C102.898 104.734 114.021 108.037 125.323 112.204C147.944 120.537 171.338 132.314 178.348 135.187C178.393 135.206 178.444 135.171 178.461 135.129C178.48 135.091 178.47 135.03 178.425 135.01C171.527 131.919 148.582 119.32 126.045 110.323C114.769 105.825 103.611 102.224 94.5108 101.145C89.9559 100.609 85.9048 100.693 82.544 101.704C80.8652 102.214 79.3566 102.965 78.0887 104.012C76.8239 105.058 75.816 106.403 75.1516 108.002C74.4261 109.729 74.2688 111.517 74.6861 113.176C75.0969 114.842 76.0343 116.344 77.3183 117.689C79.2057 119.657 81.8443 121.342 85.0574 122.845C88.2674 124.344 92.0584 125.65 96.2441 126.777C104.612 129.024 114.57 130.542 124.556 131.319C134.542 132.099 144.547 132.141 153.009 131.434C157.243 131.081 161.088 130.539 164.359 129.797C167.633 129.053 170.333 128.119 172.301 126.921C172.535 126.777 172.679 126.526 172.689 126.266C172.702 126.006 172.58 125.743 172.365 125.586C167.993 122.373 163.088 119.564 157.785 117.067C141.501 109.398 121.404 104.702 101.386 101.011C81.3757 97.3191 61.4515 94.6677 45.6682 91.1656C45.8415 92.0002 46.0116 92.838 46.1849 93.6726C52.0174 89.5414 58.4951 87.0761 65.4575 85.7825C79.8862 83.0926 96.4111 85.5867 112.714 88.9989C129.024 92.4014 145.09 96.7028 158.803 97.4379C159.49 97.4732 160.125 96.9596 160.218 96.3015C160.34 95.6499 159.904 94.9566 159.246 94.7736C127.865 86.004 97.8811 69.3283 64.87 64.3272C62.0549 63.9035 55.298 63.2679 48.8941 63.7077C45.6874 63.9292 42.5771 64.4139 40.054 65.3769C38.7925 65.8648 37.6691 66.4715 36.7638 67.2676C35.8619 68.0604 35.1781 69.0651 34.886 70.2528C34.7415 70.8306 34.7671 71.434 34.9501 71.9765C35.1331 72.519 35.4542 72.9941 35.849 73.4082C36.6483 74.2364 37.7557 74.8783 39.0911 75.4561C41.7553 76.6021 45.3665 77.4591 49.1574 78.1429C52.9452 78.8234 56.8998 79.3177 60.1836 79.6804C63.4578 80.0431 66.0835 80.2839 67.1074 80.4348C67.605 80.5086 68.0576 80.1491 68.1314 79.6612C68.2052 79.17 67.8746 78.6982 67.3803 78.6211Z" fill="rgba(255, 255, 245, 0.86)"/></svg>
