<svg viewBox="0 0 1184 1000" xmlns="http://www.w3.org/2000/svg"><path fill="#fff" d="M595.713 197.336V671.1H171.418V104.105h331.064l93.23 93.23Z"/><path d="M599.88 675.267H167.251V99.937h336.956l95.671 95.673v479.657Zm-424.295-8.333h415.96V199.061l-90.787-90.79H175.585v558.663Z"/><path fill="#5d71b5" d="m503.469 197.712.953-97.537 95.665 95.873s-95.53 2.752-96.618 1.664Z"/><path d="M301.409 609.303a4.167 4.167 0 0 1-4.167-4.167v-85.954c0-.852-.11-1.94-.234-3.251-1.035-11.1-3.466-37.093 30.807-68.919 4.079-3.786 8.358-7.7 12.746-11.715 34.391-31.453 77.191-70.597 77.191-99.54v-95.699a4.167 4.167 0 0 1 8.334 0v95.7c0 32.612-42.448 71.437-79.9 105.69a2229.432 2229.432 0 0 0-12.699 11.672c-31.264 29.03-29.18 51.322-28.18 62.036.15 1.621.269 2.972.269 4.026v85.954a4.167 4.167 0 0 1-4.167 4.167Z"/><path d="M468.346 293.653a4.155 4.155 0 0 1-3.043-1.32l-46.22-49.447a4.167 4.167 0 1 1 6.087-5.692l46.22 49.446a4.167 4.167 0 0 1-3.044 7.013Z"/><path d="M375.304 293.944a4.167 4.167 0 0 1-3.044-7.013l46.22-49.447a4.176 4.176 0 0 1 5.89-.197 4.167 4.167 0 0 1 .198 5.89l-46.22 49.447a4.155 4.155 0 0 1-3.044 1.32ZM228.838 270.814a4.15 4.15 0 0 1-2.88-1.158 4.164 4.164 0 0 1-.129-5.89l71.525-74.703a4.17 4.17 0 0 1 5.89-.128 4.164 4.164 0 0 1 .128 5.89l-71.525 74.703a4.153 4.153 0 0 1-3.009 1.286Z"/><path d="M298.774 268.43a4.151 4.151 0 0 1-2.864-1.142l-74.705-70.73a4.166 4.166 0 1 1 5.729-6.05l74.705 70.73a4.166 4.166 0 0 1-2.865 7.191Z"/><path fill="#5d71b5" d="M414.008 541.62c0-22.384 18.146-40.53 40.53-40.53 22.385 0 40.532 18.146 40.532 40.53 0 22.385-18.147 40.53-40.531 40.53-22.385 0-40.53-18.145-40.53-40.53Z"/><path fill="#0a091a" d="M980.326 355.078c-12.293 0-24.086 2.16-35.057 6.088-7.28-3.69-15.462-5.817-24.15-5.817-21.934 0-40.784 13.257-49.341 32.296-12.568 10.758-20.561 26.704-20.561 44.54 0 19.881 9.92 37.42 25.055 48.028 8.36 50.761 51.75 89.454 104.054 89.454 58.284 0 105.533-48.037 105.533-107.294s-47.249-107.295-105.533-107.295Z"/><path fill="#0a091a" d="M1034.348 379.825s11.18-13.135 6.149-19.284c-5.03-6.148 6.986 4.192 6.427 12.856 0 0 6.987-1.118 13.415 1.956 0 0-18.445 3.633-20.401 10.061l-5.59-5.59Z"/><path fill="#fff" d="M868.71 443.16s2.378 20.93-5.233 30.443c-7.61 9.513-34.248 13.794-10.464 31.394 0 0-34.724 101.793 70.399 107.026v72.302l112.734-26.162 1.902-105.599s-35.675 6.66-49.945-21.405c0 0 31.394-3.806 31.87-24.735.476-20.93-20.454-22.832-30.443-23.308-9.989-.476-47.567-17.6-32.346-57.08 0 0-43.286-39.481-88.474 17.124Z"/><path d="M919.246 689.57v-73.63c-29.916-2.24-51.368-12.647-63.798-30.97-19.536-28.79-10.4-67.584-7.264-78.449-6.307-5.145-9.18-9.812-8.996-14.552.264-6.914 6.962-11.11 12.87-14.816 3.198-2.004 6.502-4.075 8.162-6.152 5.36-6.696 4.957-22.028 4.35-27.372l-.195-1.717 1.078-1.353c15.743-19.719 33.093-30.457 51.575-31.916 24.813-1.963 42.232 13.65 42.965 14.315l2.103 1.919-1.025 2.659c-4.964 12.878-4.338 24.233 1.868 33.752 7.853 12.049 22.151 17.446 26.79 17.666 23.222 1.107 34.802 10.382 34.412 27.565-.415 18.132-19.267 25.139-29.362 27.594 14.16 19.373 42.203 14.409 42.504 14.356l5.022-.938-2.055 113.957-121.004 28.082Zm-46.228-245.111c.455 5.743 1.066 22.558-6.287 31.748-2.547 3.18-6.462 5.634-10.246 8.008-3.955 2.478-8.874 5.562-8.972 8.075-.037 1.01.663 3.943 7.98 9.359l2.445 1.808-.98 2.883c-.147.44-14.714 44.373 5.407 73.983 11.43 16.82 32.04 26.084 61.255 27.54l3.959.194v71.023l104.46-24.241 1.757-97.63c-10.99.708-37.268-.285-49.41-24.162l-2.69-5.294 5.9-.73c.277-.034 27.825-3.638 28.211-20.695.281-12.288-7.886-18.164-26.477-19.049-6.982-.334-23.938-6.964-33.374-21.442-5.054-7.757-9.623-20.589-3.699-38.403-4.935-3.642-18.042-11.827-34.68-10.474-15.657 1.272-30.643 10.523-44.56 27.499Z"/><path fill="#fff" d="M542.736 317.2s-26.37 22.819-12.678 52.23c13.692 29.412 43.104 30.426 43.104 30.426s12.17-66.43-30.426-82.657Z"/><path d="m576.612 404.145-3.594-.124c-1.305-.045-32.135-1.465-46.737-32.833-14.848-31.893 13.44-56.89 13.729-57.141l1.882-1.63 2.327.887c45.315 17.263 33.563 84.45 33.04 87.303l-.647 3.538Zm-32.96-82.051c-5.396 5.548-20.097 23.494-9.815 45.578 9.757 20.964 27.944 26.258 35.773 27.584 1.646-13.588 4.687-59.18-25.959-73.162ZM908.19 475.957a4.167 4.167 0 0 1-3.63-2.112c-9.326-16.457-22.338-13.802-22.875-13.672-2.234.495-4.027.738-4.54-1.492-.512-2.228.838-3.546 3.06-4.079.801-.19 21.83-8.295 34.339 13.773 1.135 2.002-2.301 5.906-4.303 7.04a4.148 4.148 0 0 1-2.051.542ZM872.615 523.86c-2.23 0-4.216-.302-5.721-.72a4.167 4.167 0 0 1-2.902-5.13 4.175 4.175 0 0 1 5.111-2.905c1.05.277 10.323 2.435 15.125-6.11l1.017-1.806 10.144-1.382c2.287-.323 4.378 1.284 4.692 3.565a4.168 4.168 0 0 1-3.569 4.691l-6.156.84c-4.83 6.993-12.065 8.956-17.741 8.956ZM985.587 519.85c-.688 0-1.388-.171-2.03-.532a4.163 4.163 0 0 1-1.6-5.672l4.66-8.32c.178-2.223 1.033-6.67 4.866-9.453 3.617-2.625 8.536-2.842 14.636-.655a4.17 4.17 0 0 1 2.515 5.33 4.171 4.171 0 0 1-5.33 2.515c-3.195-1.15-5.706-1.313-6.906-.458-1.237.877-1.501 3.098-1.493 3.809l.008 1.104-5.689 10.201a4.158 4.158 0 0 1-3.637 2.13ZM923.408 616.19a4.162 4.162 0 0 1-4.158-4.01 4.166 4.166 0 0 1 4.008-4.322c54.524-2.043 54.638-50.252 54.618-52.303a4.169 4.169 0 0 1 4.114-4.215h.053a4.164 4.164 0 0 1 4.166 4.101c.008.584.122 58.392-62.642 60.746-.053.002-.106.002-.159.002Z"/><path fill="#fff" d="M500.193 282.338c-8.45 12.76 58.502 47.2 63.155 58.502 4.654 11.301 9.307 47.864-16.62 50.523-25.926 2.66-51.188-17.284-53.847.665-2.66 17.95 39.887 38.558 100.383 36.563 0 0 3.324 306.467 210.737 365.633l-38.558 13.96-239.323-87.751s-78.445-68.473-76.45-83.099c1.994-14.625-19.28-4.653-11.302 16.62 7.978 21.273 13.96 35.234 7.313 38.558-6.648 3.324-116.338-23.268-116.338-23.268s-5.983 12.631 16.62 22.603c22.603 9.972 100.383 41.217 122.32 57.172 21.939 15.955 241.983 180.822 289.848 191.458 0 0 5.318 33.24-9.307 38.558-14.626 5.318 353.918 4.33 353.918 4.33s54.753-222.879-66.025-312.254l.326-32.023-113.182 28.155-1.126-23.087-185.821-69.26S630.489 341.21 615.848 329.385c-14.64-11.825-107.991-58.62-115.655-47.048Z"/><path d="M1036.824 987.603c-31.755 0-71.452-.045-110.942-.216-51.387-.224-92.375-.61-121.822-1.148-58.858-1.078-58.997-1.85-59.762-6.156-.317-1.794.517-4.024 3.101-4.964 8.37-3.044 8.024-21.965 6.97-31.32-32.41-9.614-125.921-71.39-278.145-183.76a2328 2328 0 0 0-10.392-7.65c-17.188-12.5-70.488-35.046-102.334-48.519-8.01-3.389-14.707-6.221-19.218-8.21-9.971-4.4-16.274-9.976-18.73-16.572-2.343-6.297-.223-11.1.027-11.627l1.453-3.064 3.293.8c49.695 12.044 105.852 24.145 113.707 23.437 2.18-2.132-3.707-17.71-7.642-28.119l-1.922-5.098c-4.67-12.453-.603-21.867 4.299-26.146 3.497-3.058 7.688-3.87 10.929-2.12 1.56.84 5.082 3.57 4.103 10.747-.612 7.983 38.072 47.05 74.482 78.888l237.174 86.962 25.545-9.248c-80.257-27.617-140.307-97.868-174.117-204.015-23.09-72.495-27.02-140.332-27.663-157.625-48.73.85-82.643-12.32-94.9-26.062-5.555-6.23-6.089-11.802-5.56-15.38.623-4.204 2.369-7.276 5.186-9.136 5.597-3.696 13.455-1.63 23.397.987 8.873 2.336 18.923 4.98 28.961 3.951 5.738-.59 9.87-3.12 12.633-7.741 6.54-10.936 3.536-29.828.56-37.053-1.38-3.35-14.956-12.821-24.87-19.734-24.278-16.936-45.246-31.562-37.906-42.652 1.254-1.894 3.302-3.07 6.09-3.501 20.723-3.229 101.965 38.544 115.657 49.605 14.69 11.865 107.664 215.051 121.523 245.451l186.776 69.615 1.01 20.766 113.488-28.233-.358 35.3c49.373 37.574 76.432 103.773 78.284 191.623 1.403 66.67-12.264 123.132-12.403 123.694l-.777 3.165-3.255.008c-.484 0-27.344.07-65.93.07ZM758.14 976.519c40.605 2.49 218.376 2.994 341.272 2.69 5.961-27.34 44.243-223.78-65.173-304.75l-1.71-1.265.294-28.762-112.879 28.079-1.237-25.41-184.871-68.906-.716-1.573C690.506 483.05 623.408 340.85 613.229 332.626c-6.329-5.113-30.641-18.579-56.744-30.477-35.632-16.241-50.012-18.416-52.934-17.277-1.76 4.757 26.461 24.44 35.84 30.984 16.284 11.358 25.606 18.046 27.81 23.397 3.257 7.91 7.501 30.098-1.113 44.502-4.09 6.838-10.636 10.903-18.935 11.754-11.552 1.192-22.848-1.789-31.934-4.181-6.974-1.833-14.186-3.74-16.687-2.09-.755.499-1.27 1.642-1.53 3.4-.392 2.645.798 5.544 3.536 8.612 11.294 12.66 46.727 24.693 92.589 23.177l4.256-.14.047 4.26c.032 3.033 5.706 304.047 207.716 361.668l12.395 3.536-52.104 18.868-241.476-88.542-.581-.508c-18.8-16.407-79.97-71.161-77.839-86.799.135-.99.102-1.668.037-2.079-.602.242-1.627.903-2.62 2.301-1.28 1.799-3.909 6.911-.688 15.5l1.914 5.077c7.998 21.163 12.826 33.936 3.361 38.67-6.429 3.21-64.86-9.84-114.656-21.848.545 3.33 3.422 8.644 14.756 13.643 4.48 1.977 11.14 4.793 19.1 8.162 32.176 13.611 86.027 36.39 103.99 49.455 1.971 1.432 5.54 4.07 10.437 7.682 194.356 143.47 258.378 178.748 277.86 183.077l2.763.615.448 2.795c.48 3.011 3.646 24.91-4.102 36.699ZM503.67 284.639l-.002.001-.002.004.004-.006ZM893.26 477.887a6.738 6.738 0 1 1-13.477 0 6.738 6.738 0 0 1 13.476 0Z"/><path d="M758.076 778.671a4.168 4.168 0 0 1-3.809-5.847l71.652-162.787a4.152 4.152 0 0 1 5.493-2.134 4.166 4.166 0 0 1 2.132 5.491l-71.651 162.79a4.169 4.169 0 0 1-3.817 2.487ZM807.812 952.267c-17.412 0-36.967-1.741-51.34-7.963a4.172 4.172 0 0 1-2.168-5.48 4.17 4.17 0 0 1 5.481-2.17c29.822 12.92 87.101 4.627 87.68 4.541 2.282-.292 4.39 1.233 4.731 3.512a4.166 4.166 0 0 1-3.511 4.732c-1.343.2-19.495 2.828-40.873 2.828Z"/><path d="M845.365 950.912 799.01 791.981l152.552-72.449a4.164 4.164 0 0 1 5.55 1.978 4.164 4.164 0 0 1-1.978 5.55l-146.138 69.405 41.793 143.274c22.75-9.066 111.466-43.376 135.205-38.037a4.173 4.173 0 0 1 3.14 4.988c-.508 2.242-2.721 3.634-4.988 3.142-19.6-4.484-103.751 26.888-134.509 39.347l-4.272 1.733ZM933.145 713.575l12.87-51.481a4.151 4.151 0 0 1 5.05-3.032 4.163 4.163 0 0 1 3.032 5.054l-9.054 36.212 90.238-33.13a4.167 4.167 0 0 1 2.873 7.825l-105.009 38.552Z"/><path d="M883.015 759.604c-.586 0-1.18-.122-1.746-.387a4.163 4.163 0 0 1-2.03-5.53l40.84-88.195a4.165 4.165 0 0 1 5.53-2.029 4.166 4.166 0 0 1 2.03 5.532l-40.84 88.192a4.165 4.165 0 0 1-3.784 2.417Z"/><path d="M834.956 781.947a4.153 4.153 0 0 1-2.43-.786 4.163 4.163 0 0 1-.947-5.814l88.533-123.108a4.163 4.163 0 0 1 5.815-.95 4.165 4.165 0 0 1 .948 5.816L838.34 780.213a4.163 4.163 0 0 1-3.385 1.734Z"/></svg>
